Coordinates
version=1
nRows=7
nColumns=46
inDegrees=yes

Units are S.I. units (second, meters, Newtons, ...)
Angles are in degrees.

endheader
time	pelvis_tilt	pelvis_list	pelvis_rotation	pelvis_tx	pelvis_ty	pelvis_tz	bb_angle	bb_tx	bb_ty	bb_tz	hip_flexion_r	hip_adduction_r	hip_rotation_r	knee_angle_r	knee_angle_r_beta	ankle_angle_r	subtalar_angle_r	mtp_angle_r	crank_angle_r	hip_flexion_l	hip_adduction_l	hip_rotation_l	knee_angle_l	knee_angle_l_beta	ankle_angle_l	subtalar_angle_l	mtp_angle_l	crank_angle_l	lumbar_extension	lumbar_bending	lumbar_rotation	arm_flex_r	arm_add_r	arm_rot_r	elbow_flex_r	pro_sup_r	wrist_flex_r	wrist_dev_r	arm_flex_l	arm_add_l	arm_rot_l	elbow_flex_l	pro_sup_l	wrist_flex_l	wrist_dev_l
      2.50000000	    -25.06515540	      9.67950433	      1.79588772	      0.28137696	      1.06019837	     -0.23423588	      0.00000000	      0.50000000	      0.00000000	      0.25000000	     43.68375810	    -17.33587574	     -5.64736014	     28.34050240	      0.49463508	    -20.37261314	      4.30092672	      0.00000000	      0.00000000	     77.67420350	     -1.38521684	     -7.07156920	    113.48196625	      1.98063395	     -5.30365691	     -6.77886402	      0.00000000	      0.00000000	    -51.62528291	     -5.85453658	     -9.60301091	     57.84402477	    -14.58848304	     18.82421875	     79.74537116	     51.36007454	      0.00000000	      0.00000000	     59.60222485	    -19.59050451	     20.47771400	     78.79616577	     51.19231978	      0.00000000	      0.00000000
      2.50500000	    -25.15469657	     10.01546724	      2.28166934	      0.28239545	      1.05964514	     -0.23424197	      0.00000000	      0.50000000	      0.00000000	      0.25000000	     42.91282413	    -17.94318844	     -5.90777350	     27.76623344	      0.48461219	    -21.22166412	      4.47020051	      0.00000000	      0.00000000	     78.65649283	     -1.25506963	     -7.39356112	    114.17352531	      1.99270394	     -4.58687578	     -6.64933182	      0.00000000	      0.00000000	    -51.48819645	     -6.06590562	    -10.07446555	     57.40595060	    -14.83622640	     18.80068943	     79.67635890	     51.34873393	      0.00000000	      0.00000000	     59.71985273	    -19.58037151	     20.72961772	     78.71708652	     51.19462211	      0.00000000	      0.00000000
      2.51000000	    -25.27945869	     10.37601186	      2.83212020	      0.28319848	      1.05972965	     -0.23455090	      0.00000000	      0.50000000	      0.00000000	      0.25000000	     42.06401681	    -18.57555879	     -6.10904881	     26.95884694	      0.47052064	    -22.44506103	      4.50084852	      0.00000000	      0.00000000	     79.59527814	     -0.96051186	     -7.68517199	    114.62012151	      2.00049851	     -3.77830495	     -6.05100899	      0.00000000	      0.00000000	    -51.40202239	     -6.21737113	    -10.58912621	     56.98900980	    -15.06568033	     18.81014494	     79.70359946	     51.36097149	      0.00000000	      0.00000000	     59.86663337	    -19.62171829	     21.24174436	     78.52207081	     51.20648262	      0.00000000	      0.00000000
      2.51500000	    -25.46904303	     10.62385686	      3.36413052	      0.28378017	      1.06018065	     -0.23473335	      0.00000000	      0.50000000	      0.00000000	      0.25000000	     41.27817891	    -19.07889634	     -6.35200424	     26.18271788	      0.45697463	    -23.52444996	      4.55554726	      0.00000000	      0.00000000	     80.56372454	     -0.71740311	     -7.92523758	    114.90754818	      2.00551505	     -3.07474942	     -5.78028188	      0.00000000	      0.00000000	    -51.32210452	     -6.31778346	    -11.07048206	     56.76762572	    -15.22315513	     18.77252896	     79.68855356	     51.36437784	      0.00000000	      0.00000000	     60.10741946	    -19.69384409	     21.62627799	     78.40524383	     51.22390635	      0.00000000	      0.00000000
      2.52000000	    -25.48305993	     10.77752740	      3.90720893	      0.28432476	      1.06152642	     -0.23484682	      0.00000000	      0.50000000	      0.00000000	      0.25000000	     40.20178017	    -19.45766221	     -6.72886093	     25.21477649	      0.44008087	    -25.10939043	      4.15829136	      0.00000000	      0.00000000	     81.26358079	     -0.41777971	     -8.04713811	    114.98162652	      2.00680796	     -2.46838227	     -5.37559377	      0.00000000	      0.00000000	    -51.50914729	     -6.31896766	    -11.52420347	     56.67468178	    -15.31925365	     18.60485419	     79.63783642	     51.36375276	      0.00000000	      0.00000000	     60.72978039	    -20.14618785	     22.81163725	     78.06752010	     51.28221675	      0.00000000	      0.00000000
      2.52500000	    -25.88240004	     10.97024986	      4.33710926	      0.28463877	      1.06266234	     -0.23539885	      0.00000000	      0.50000000	      0.00000000	      0.25000000	     39.68133180	    -19.85293427	     -6.93571526	     24.32656546	      0.42457866	    -26.74251832	      4.23239490	      0.00000000	      0.00000000	     82.27926893	     -0.12318060	     -8.34379633	    114.87218075	      2.00489777	     -1.87521044	     -5.47207022	      0.00000000	      0.00000000	    -51.35432369	     -6.43463271	    -11.95428469	     56.63517206	    -15.45773339	     18.48656366	     79.47078263	     51.33433845	      0.00000000	      0.00000000	     60.90314746	    -20.19271724	     23.17356943	     78.06964925	     51.31575016	      0.00000000	      0.00000000
      2.53000000	    -26.30457770	     11.14967876	      4.94899222	      0.28467911	      1.06447370	     -0.23622969	      0.00000000	      0.50000000	      0.00000000	      0.25000000	     39.07931566	    -20.30385530	     -7.19864627	     23.31940715	      0.40700043	    -28.50157429	      4.11627126	      0.00000000	      0.00000000	     83.19605048	      0.43277972	     -8.64417100	    114.52075246	      1.99876419	     -1.01733720	     -5.64745347	      0.00000000	      0.00000000	    -51.27449531	     -6.37328043	    -12.49193719	     56.68885317	    -15.57601002	     18.37707351	     79.30469162	     51.30139319	      0.00000000	      0.00000000	     61.23155619	    -20.18548049	     23.41368280	     78.13849718	     51.34528713	      0.00000000	      0.00000000
